<svg xmlns="http://www.w3.org/2000/svg" viewBox="0 0 200 200" fill="none">
  <!-- Background -->
  <rect width="200" height="200" rx="20" fill="url(#bg_cafe)"/>

  <!-- Saucer -->
  <ellipse cx="100" cy="148" rx="48" ry="8" fill="rgba(34,211,238,0.15)" stroke="rgba(34,211,238,0.4)" stroke-width="1.5"/>
  <ellipse cx="100" cy="148" rx="36" ry="5" fill="rgba(34,211,238,0.08)"/>

  <!-- Cup body -->
  <path d="M68 100 Q65 148 100 148 Q135 148 132 100 Z" fill="rgba(34,211,238,0.12)" stroke="rgba(34,211,238,0.5)" stroke-width="1.5"/>

  <!-- Cup top ellipse -->
  <ellipse cx="100" cy="100" rx="32" ry="7" fill="rgba(34,211,238,0.2)" stroke="rgba(34,211,238,0.5)" stroke-width="1.5"/>

  <!-- Coffee surface inside cup -->
  <ellipse cx="100" cy="100" rx="28" ry="5.5" fill="rgba(34,211,238,0.35)"/>

  <!-- Handle -->
  <path d="M132 108 Q152 108 152 124 Q152 140 132 140" stroke="rgba(34,211,238,0.5)" stroke-width="3" stroke-linecap="round" fill="none"/>
  <path d="M132 114 Q145 114 145 124 Q145 134 132 134" stroke="rgba(34,211,238,0.2)" stroke-width="1.5" stroke-linecap="round" fill="none"/>

  <!-- Steam wisps -->
  <path d="M84 88 Q80 80 84 72 Q88 64 84 56" stroke="rgba(34,211,238,0.5)" stroke-width="2" stroke-linecap="round" fill="none"/>
  <path d="M100 84 Q96 76 100 68 Q104 60 100 52" stroke="rgba(34,211,238,0.7)" stroke-width="2.5" stroke-linecap="round" fill="none"/>
  <path d="M116 88 Q112 80 116 72 Q120 64 116 56" stroke="rgba(34,211,238,0.5)" stroke-width="2" stroke-linecap="round" fill="none"/>

  <!-- Small decorative dots in steam area -->
  <circle cx="75" cy="67" r="1.5" fill="rgba(34,211,238,0.3)"/>
  <circle cx="125" cy="60" r="1" fill="rgba(34,211,238,0.25)"/>
  <circle cx="88" cy="44" r="1.5" fill="rgba(34,211,238,0.2)"/>

  <!-- Sparkles / stars top right -->
  <text x="152" y="48" font-size="12" fill="rgba(34,211,238,0.7)">✦</text>
  <text x="163" y="62" font-size="8" fill="rgba(34,211,238,0.4)">✦</text>
  <text x="158" y="75" font-size="6" fill="rgba(34,211,238,0.3)">✦</text>

  <!-- Order ticket / receipt bottom left -->
  <rect x="24" y="118" width="32" height="42" rx="4" fill="rgba(34,211,238,0.08)" stroke="rgba(34,211,238,0.3)" stroke-width="1"/>
  <rect x="24" y="118" width="32" height="10" rx="4" fill="rgba(34,211,238,0.2)"/>
  <rect x="24" y="126" width="32" height="2" fill="rgba(34,211,238,0.2)"/>
  <rect x="28" y="133" width="20" height="2" rx="1" fill="rgba(255,255,255,0.2)"/>
  <rect x="28" y="139" width="15" height="2" rx="1" fill="rgba(255,255,255,0.2)"/>
  <rect x="28" y="145" width="18" height="2" rx="1" fill="rgba(255,255,255,0.2)"/>
  <line x1="24" y1="151" x2="56" y2="151" stroke="rgba(34,211,238,0.3)" stroke-width="0.8"/>
  <rect x="38" y="154" width="14" height="3" rx="1" fill="rgba(34,211,238,0.5)"/>

  <!-- Coin / money symbol bottom right -->
  <circle cx="166" cy="148" r="16" fill="rgba(34,211,238,0.1)" stroke="rgba(34,211,238,0.35)" stroke-width="1.5"/>
  <circle cx="166" cy="148" r="10" fill="rgba(34,211,238,0.08)" stroke="rgba(34,211,238,0.25)" stroke-width="1"/>
  <text x="166" y="153" text-anchor="middle" font-family="sans-serif" font-size="11" font-weight="bold" fill="rgba(34,211,238,0.8)">Bs</text>

  <defs>
    <radialGradient id="bg_cafe" cx="50%" cy="35%" r="70%">
      <stop offset="0%" stop-color="#001a1a"/>
      <stop offset="100%" stop-color="#000d0d"/>
    </radialGradient>
  </defs>
</svg>
